<?xml version="1.0" standalone="no"?>
<!DOCTYPE svg PUBLIC "-//W3C//DTD SVG 20010904//EN"
 "http://www.w3.org/TR/2001/REC-SVG-20010904/DTD/svg10.dtd">
<svg version="1.0" xmlns="http://www.w3.org/2000/svg"
 width="225.000000pt" height="225.000000pt" viewBox="0 0 225.000000 225.000000"
 preserveAspectRatio="xMidYMid meet">

<g transform="translate(0.000000,225.000000) scale(0.100000,-0.100000)"
fill="#000000" stroke="none">
<path d="M1194 1546 c-35 -15 -72 -58 -80 -93 -4 -16 -12 -22 -23 -19 -88 26
-157 11 -217 -49 -74 -75 -83 -185 -23 -304 54 -107 158 -171 279 -171 121 0
225 64 279 170 67 136 42 278 -61 335 -34 19 -35 22 -22 45 7 14 13 35 14 47
0 47 -79 68 -146 39z m76 -25 c-39 -12 -89 -40 -111 -62 -10 -10 -19 -14 -19
-8 0 6 15 26 34 45 29 29 41 34 78 33 35 -1 39 -2 18 -8z m40 -24 c0 -38 -82
-96 -137 -97 -52 0 -10 54 67 89 52 24 70 26 70 8z m-208 -103 c16 -8 34 -23
41 -34 14 -24 27 -26 27 -5 0 8 17 19 43 26 23 6 48 16 54 21 34 27 124 -50
143 -123 29 -107 -44 -254 -155 -311 -48 -25 -145 -34 -201 -19 -134 36 -233
190 -206 318 12 60 34 94 75 118 62 37 119 40 179 9z"/>
<path d="M972 1268 c-26 -26 -10 -51 17 -25 11 10 14 10 18 0 8 -22 25 -14 21
10 -3 25 -36 35 -56 15z"/>
<path d="M1231 1261 c-13 -23 6 -42 19 -20 7 10 11 10 24 -1 21 -16 34 -5 20
18 -16 25 -51 27 -63 3z"/>
<path d="M1050 1176 c0 -24 24 -34 88 -34 47 -1 65 3 69 14 8 21 -4 29 -22 14
-13 -11 -19 -10 -35 5 -16 14 -23 16 -32 7 -15 -15 -48 -16 -48 -2 0 6 -4 10
-10 10 -5 0 -10 -6 -10 -14z"/>
<path d="M682 778 c2 -56 7 -83 16 -86 7 -2 16 5 19 16 3 13 16 22 39 26 36 7
54 30 54 69 0 37 -30 57 -84 57 l-47 0 3 -82z m88 37 c19 -22 5 -45 -28 -45
-26 0 -28 3 -24 30 5 33 31 41 52 15z"/>
<path d="M1245 847 c-4 -8 -5 -45 -3 -83 2 -53 6 -69 18 -69 10 0 16 12 18 37
6 72 58 73 64 1 5 -59 28 -54 28 6 0 43 -4 53 -25 67 -14 9 -34 14 -44 11 -15
-3 -21 1 -23 16 -4 25 -26 34 -33 14z"/>
<path d="M841 794 c-12 -15 -21 -32 -21 -39 0 -7 9 -24 21 -39 21 -26 52 -33
78 -17 18 12 4 33 -17 27 -10 -3 -24 -1 -32 4 -11 7 -2 10 33 10 43 0 47 2 47
24 0 28 -33 56 -66 56 -13 0 -32 -12 -43 -26z m64 -14 c4 -6 -6 -10 -22 -10
-22 0 -25 2 -13 10 19 12 27 12 35 0z"/>
<path d="M987 802 c-23 -25 -21 -75 2 -96 13 -12 32 -16 62 -14 l44 4 -1 42
c-1 50 -26 82 -64 82 -15 0 -34 -8 -43 -18z m61 -24 c17 -17 15 -45 -4 -52
-18 -7 -44 10 -44 28 0 13 20 36 30 36 3 0 11 -5 18 -12z"/>
<path d="M1132 797 c-53 -57 10 -134 79 -97 32 17 23 33 -15 26 -42 -8 -63 12
-46 44 9 17 17 20 46 14 38 -7 47 8 15 26 -31 16 -56 12 -79 -13z"/>
<path d="M1396 813 c-3 -3 -6 -33 -6 -65 0 -45 3 -58 15 -58 12 0 15 13 15 59
0 56 -9 79 -24 64z"/>
<path d="M1461 801 c-42 -42 -10 -116 47 -109 16 2 27 9 27 18 0 10 -8 14 -22
12 -12 -2 -24 2 -28 8 -4 6 8 10 34 10 49 0 59 14 34 48 -26 34 -65 40 -92 13z
m64 -21 c4 -6 -5 -10 -20 -10 -15 0 -24 4 -20 10 3 6 12 10 20 10 8 0 17 -4
20 -10z"/>
</g>
</svg>
